solid 0805-M
facet normal 1 0 0
  outer loop
    vertex 23.622045 -26.559055 1
    vertex 23.622045 26.559055 32
    vertex 23.622045 -26.559055 32
  endloop
endfacet
facet normal 1 0 0
  outer loop
    vertex 23.622045 -26.559055 1
    vertex 23.622045 26.559055 1
    vertex 23.622045 26.559055 32
  endloop
endfacet
facet normal -1 0 0
  outer loop
    vertex -23.622045 26.559055 1
    vertex -23.622045 -26.559055 32
    vertex -23.622045 26.559055 32
  endloop
endfacet
facet normal -1 0 0
  outer loop
    vertex -23.622045 26.559055 1
    vertex -23.622045 -26.559055 1
    vertex -23.622045 -26.559055 32
  endloop
endfacet
facet normal 0 -1 0
  outer loop
    vertex -23.622045 -26.559055 1
    vertex 23.622045 -26.559055 32
    vertex -23.622045 -26.559055 32
  endloop
endfacet
facet normal 0 -1 0
  outer loop
    vertex -23.622045 -26.559055 1
    vertex 23.622045 -26.559055 1
    vertex 23.622045 -26.559055 32
  endloop
endfacet
facet normal 0 1 0
  outer loop
    vertex 23.622045 26.559055 1
    vertex -23.622045 26.559055 32
    vertex 23.622045 26.559055 32
  endloop
endfacet
facet normal 0 1 0
  outer loop
    vertex 23.622045 26.559055 1
    vertex -23.622045 26.559055 1
    vertex -23.622045 26.559055 32
  endloop
endfacet
facet normal 0 0 -1
  outer loop
    vertex 23.622045 -26.559055 1
    vertex -23.622045 26.559055 1
    vertex 23.622045 26.559055 1
  endloop
endfacet
facet normal 0 0 -1
  outer loop
    vertex 23.622045 -26.559055 1
    vertex -23.622045 -26.559055 1
    vertex -23.622045 26.559055 1
  endloop
endfacet
facet normal 0 0 1
  outer loop
    vertex 23.622045 -26.559055 32
    vertex 23.622045 26.559055 32
    vertex -23.622045 26.559055 32
  endloop
endfacet
facet normal 0 0 1
  outer loop
    vertex 23.622045 -26.559055 32
    vertex -23.622045 26.559055 32
    vertex -23.622045 -26.559055 32
  endloop
endfacet
facet normal 0 0 -1
  outer loop
    vertex -14.173227 -26.659055 .9
    vertex -18.897636 -26.659055 .9
    vertex -14.173227 26.659055 .9
  endloop
endfacet
facet normal 0 0 -1
  outer loop
    vertex -14.173227 26.659055 .9
    vertex -18.897636 -26.659055 .9
    vertex -18.897636 26.659055 .9
  endloop
endfacet
facet normal 0 0 1
  outer loop
    vertex -14.173227 -26.659055 32.1
    vertex -14.173227 26.659055 32.1
    vertex -18.897636 -26.659055 32.1
  endloop
endfacet
facet normal 0 0 1
  outer loop
    vertex -18.897636 -26.659055 32.1
    vertex -14.173227 26.659055 32.1
    vertex -18.897636 26.659055 32.1
  endloop
endfacet
facet normal 0 1 0
  outer loop
    vertex -14.173227 26.659055 32.1
    vertex -14.173227 26.659055 .9
    vertex -18.897636 26.659055 .9
  endloop
endfacet
facet normal 0 1 0
  outer loop
    vertex -14.173227 26.659055 32.1
    vertex -18.897636 26.659055 .9
    vertex -18.897636 26.659055 32.1
  endloop
endfacet
facet normal 0 -1 0
  outer loop
    vertex -14.173227 -26.659055 .9
    vertex -14.173227 -26.659055 32.1
    vertex -18.897636 -26.659055 .9
  endloop
endfacet
facet normal 0 -1 0
  outer loop
    vertex -18.897636 -26.659055 32.1
    vertex -18.897636 -26.659055 .9
    vertex -14.173227 -26.659055 32.1
  endloop
endfacet
facet normal 0 0 -1
  outer loop
    vertex -14.173227 -26.559055 1
    vertex -18.897636 -26.559055 1
    vertex -14.173227 26.559055 1
  endloop
endfacet
facet normal 0 0 -1
  outer loop
    vertex -14.173227 26.559055 1
    vertex -18.897636 -26.559055 1
    vertex -18.897636 26.559055 1
  endloop
endfacet
facet normal 0 0 1
  outer loop
    vertex -14.173227 -26.559055 32
    vertex -14.173227 26.559055 32
    vertex -18.897636 -26.559055 32
  endloop
endfacet
facet normal 0 0 1
  outer loop
    vertex -18.897636 -26.559055 32
    vertex -14.173227 26.559055 32
    vertex -18.897636 26.559055 32
  endloop
endfacet
facet normal 0 1 0
  outer loop
    vertex -14.173227 26.559055 32
    vertex -14.173227 26.559055 1
    vertex -18.897636 26.559055 1
  endloop
endfacet
facet normal 0 1 0
  outer loop
    vertex -14.173227 26.559055 32
    vertex -18.897636 26.559055 1
    vertex -18.897636 26.559055 32
  endloop
endfacet
facet normal 0 -1 0
  outer loop
    vertex -14.173227 -26.559055 1
    vertex -14.173227 -26.559055 32
    vertex -18.897636 -26.559055 1
  endloop
endfacet
facet normal 0 -1 0
  outer loop
    vertex -18.897636 -26.559055 32
    vertex -18.897636 -26.559055 1
    vertex -14.173227 -26.559055 32
  endloop
endfacet
facet normal -1 0 0
  outer loop
    vertex -18.897636 26.659055 32.1
    vertex -18.897636 26.559055 32
    vertex -18.897636 -26.659055 32.1
  endloop
endfacet
facet normal -1 0 0
  outer loop
    vertex -18.897636 26.559055 32
    vertex -18.897636 -26.559055 32
    vertex -18.897636 -26.659055 32.1
  endloop
endfacet
facet normal -1 0 0
  outer loop
    vertex -18.897636 -26.659055 32.1
    vertex -18.897636 -26.559055 32
    vertex -18.897636 -26.659055 .9
  endloop
endfacet
facet normal -1 0 0
  outer loop
    vertex -18.897636 -26.559055 32
    vertex -18.897636 -26.559055 1
    vertex -18.897636 -26.659055 .9
  endloop
endfacet
facet normal -1 0 0
  outer loop
    vertex -18.897636 26.659055 .9
    vertex -18.897636 -26.659055 .9
    vertex -18.897636 26.559055 1
  endloop
endfacet
facet normal -1 0 0
  outer loop
    vertex -18.897636 26.559055 1
    vertex -18.897636 -26.659055 .9
    vertex -18.897636 -26.559055 1
  endloop
endfacet
facet normal -1 0 0
  outer loop
    vertex -18.897636 26.659055 32.1
    vertex -18.897636 26.659055 .9
    vertex -18.897636 26.559055 32
  endloop
endfacet
facet normal -1 0 0
  outer loop
    vertex -18.897636 26.559055 32
    vertex -18.897636 26.659055 .9
    vertex -18.897636 26.559055 1
  endloop
endfacet
facet normal 1 0 0
  outer loop
    vertex -14.173227 -26.659055 32.1
    vertex -14.173227 -26.559055 32
    vertex -14.173227 26.659055 32.1
  endloop
endfacet
facet normal 1 0 0
  outer loop
    vertex -14.173227 -26.559055 32
    vertex -14.173227 26.559055 32
    vertex -14.173227 26.659055 32.1
  endloop
endfacet
facet normal 1 0 0
  outer loop
    vertex -14.173227 26.659055 32.1
    vertex -14.173227 26.559055 32
    vertex -14.173227 26.659055 .9
  endloop
endfacet
facet normal 1 0 0
  outer loop
    vertex -14.173227 26.559055 32
    vertex -14.173227 26.559055 1
    vertex -14.173227 26.659055 .9
  endloop
endfacet
facet normal 1 0 0
  outer loop
    vertex -14.173227 -26.659055 .9
    vertex -14.173227 26.659055 .9
    vertex -14.173227 -26.559055 1
  endloop
endfacet
facet normal 1 0 0
  outer loop
    vertex -14.173227 -26.559055 1
    vertex -14.173227 26.659055 .9
    vertex -14.173227 26.559055 1
  endloop
endfacet
facet normal 1 0 0
  outer loop
    vertex -14.173227 -26.659055 32.1
    vertex -14.173227 -26.659055 .9
    vertex -14.173227 -26.559055 32
  endloop
endfacet
facet normal 1 0 0
  outer loop
    vertex -14.173227 -26.559055 32
    vertex -14.173227 -26.659055 .9
    vertex -14.173227 -26.559055 1
  endloop
endfacet
facet normal 1 0 0
  outer loop
    vertex 43.307085 -27.559055 0
    vertex 43.307085 27.559055 33
    vertex 43.307085 -27.559055 33
  endloop
endfacet
facet normal 1 0 0
  outer loop
    vertex 43.307085 -27.559055 0
    vertex 43.307085 27.559055 0
    vertex 43.307085 27.559055 33
  endloop
endfacet
facet normal -1 0 0
  outer loop
    vertex 23.622045 27.559055 0
    vertex 23.622045 -27.559055 33
    vertex 23.622045 27.559055 33
  endloop
endfacet
facet normal -1 0 0
  outer loop
    vertex 23.622045 27.559055 0
    vertex 23.622045 -27.559055 0
    vertex 23.622045 -27.559055 33
  endloop
endfacet
facet normal 0 -1 0
  outer loop
    vertex 23.622045 -27.559055 0
    vertex 43.307085 -27.559055 33
    vertex 23.622045 -27.559055 33
  endloop
endfacet
facet normal 0 -1 0
  outer loop
    vertex 23.622045 -27.559055 0
    vertex 43.307085 -27.559055 0
    vertex 43.307085 -27.559055 33
  endloop
endfacet
facet normal 0 1 0
  outer loop
    vertex 43.307085 27.559055 0
    vertex 23.622045 27.559055 33
    vertex 43.307085 27.559055 33
  endloop
endfacet
facet normal 0 1 0
  outer loop
    vertex 43.307085 27.559055 0
    vertex 23.622045 27.559055 0
    vertex 23.622045 27.559055 33
  endloop
endfacet
facet normal 0 0 -1
  outer loop
    vertex 43.307085 -27.559055 0
    vertex 23.622045 27.559055 0
    vertex 43.307085 27.559055 0
  endloop
endfacet
facet normal 0 0 -1
  outer loop
    vertex 43.307085 -27.559055 0
    vertex 23.622045 -27.559055 0
    vertex 23.622045 27.559055 0
  endloop
endfacet
facet normal 0 0 1
  outer loop
    vertex 43.307085 -27.559055 33
    vertex 43.307085 27.559055 33
    vertex 23.622045 27.559055 33
  endloop
endfacet
facet normal 0 0 1
  outer loop
    vertex 43.307085 -27.559055 33
    vertex 23.622045 27.559055 33
    vertex 23.622045 -27.559055 33
  endloop
endfacet
facet normal -1 0 0
  outer loop
    vertex -43.307085 27.559055 0
    vertex -43.307085 -27.559055 33
    vertex -43.307085 27.559055 33
  endloop
endfacet
facet normal -1 0 0
  outer loop
    vertex -43.307085 27.559055 0
    vertex -43.307085 -27.559055 0
    vertex -43.307085 -27.559055 33
  endloop
endfacet
facet normal 1 0 0
  outer loop
    vertex -23.622045 -27.559055 0
    vertex -23.622045 27.559055 33
    vertex -23.622045 -27.559055 33
  endloop
endfacet
facet normal 1 0 0
  outer loop
    vertex -23.622045 -27.559055 0
    vertex -23.622045 27.559055 0
    vertex -23.622045 27.559055 33
  endloop
endfacet
facet normal 0 1 0
  outer loop
    vertex -23.622045 27.559055 0
    vertex -43.307085 27.559055 33
    vertex -23.622045 27.559055 33
  endloop
endfacet
facet normal 0 1 0
  outer loop
    vertex -23.622045 27.559055 0
    vertex -43.307085 27.559055 0
    vertex -43.307085 27.559055 33
  endloop
endfacet
facet normal 0 -1 0
  outer loop
    vertex -43.307085 -27.559055 0
    vertex -23.622045 -27.559055 33
    vertex -43.307085 -27.559055 33
  endloop
endfacet
facet normal 0 -1 0
  outer loop
    vertex -43.307085 -27.559055 0
    vertex -23.622045 -27.559055 0
    vertex -23.622045 -27.559055 33
  endloop
endfacet
facet normal 0 0 -1
  outer loop
    vertex -43.307085 27.559055 0
    vertex -23.622045 -27.559055 0
    vertex -43.307085 -27.559055 0
  endloop
endfacet
facet normal 0 0 -1
  outer loop
    vertex -43.307085 27.559055 0
    vertex -23.622045 27.559055 0
    vertex -23.622045 -27.559055 0
  endloop
endfacet
facet normal 0 0 1
  outer loop
    vertex -43.307085 27.559055 33
    vertex -43.307085 -27.559055 33
    vertex -23.622045 -27.559055 33
  endloop
endfacet
facet normal 0 0 1
  outer loop
    vertex -43.307085 27.559055 33
    vertex -23.622045 -27.559055 33
    vertex -23.622045 27.559055 33
  endloop
endfacet
endsolid 0805-M
