solid C0805C-M
facet normal 1 0 0
  outer loop
    vertex 15.5 -27.5 1
    vertex 15.5 27.5 54
    vertex 15.5 -27.5 54
  endloop
endfacet
facet normal 1 0 0
  outer loop
    vertex 15.5 -27.5 1
    vertex 15.5 27.5 1
    vertex 15.5 27.5 54
  endloop
endfacet
facet normal -1 0 0
  outer loop
    vertex -15.5 27.5 1
    vertex -15.5 -27.5 54
    vertex -15.5 27.5 54
  endloop
endfacet
facet normal -1 0 0
  outer loop
    vertex -15.5 27.5 1
    vertex -15.5 -27.5 1
    vertex -15.5 -27.5 54
  endloop
endfacet
facet normal 0 -1 0
  outer loop
    vertex -15.5 -27.5 1
    vertex 15.5 -27.5 54
    vertex -15.5 -27.5 54
  endloop
endfacet
facet normal 0 -1 0
  outer loop
    vertex -15.5 -27.5 1
    vertex 15.5 -27.5 1
    vertex 15.5 -27.5 54
  endloop
endfacet
facet normal 0 1 0
  outer loop
    vertex 15.5 27.5 1
    vertex -15.5 27.5 54
    vertex 15.5 27.5 54
  endloop
endfacet
facet normal 0 1 0
  outer loop
    vertex 15.5 27.5 1
    vertex -15.5 27.5 1
    vertex -15.5 27.5 54
  endloop
endfacet
facet normal 0 0 -1
  outer loop
    vertex 15.5 -27.5 1
    vertex -15.5 27.5 1
    vertex 15.5 27.5 1
  endloop
endfacet
facet normal 0 0 -1
  outer loop
    vertex 15.5 -27.5 1
    vertex -15.5 -27.5 1
    vertex -15.5 27.5 1
  endloop
endfacet
facet normal 0 0 1
  outer loop
    vertex 15.5 -27.5 54
    vertex 15.5 27.5 54
    vertex -15.5 27.5 54
  endloop
endfacet
facet normal 0 0 1
  outer loop
    vertex 15.5 -27.5 54
    vertex -15.5 27.5 54
    vertex -15.5 -27.5 54
  endloop
endfacet
facet normal 1 0 0
  outer loop
    vertex 43.5 -28.5 0
    vertex 43.5 28.5 55
    vertex 43.5 -28.5 55
  endloop
endfacet
facet normal 1 0 0
  outer loop
    vertex 43.5 -28.5 0
    vertex 43.5 28.5 0
    vertex 43.5 28.5 55
  endloop
endfacet
facet normal -1 0 0
  outer loop
    vertex 15.5 28.5 0
    vertex 15.5 -28.5 55
    vertex 15.5 28.5 55
  endloop
endfacet
facet normal -1 0 0
  outer loop
    vertex 15.5 28.5 0
    vertex 15.5 -28.5 0
    vertex 15.5 -28.5 55
  endloop
endfacet
facet normal 0 -1 0
  outer loop
    vertex 15.5 -28.5 0
    vertex 43.5 -28.5 55
    vertex 15.5 -28.5 55
  endloop
endfacet
facet normal 0 -1 0
  outer loop
    vertex 15.5 -28.5 0
    vertex 43.5 -28.5 0
    vertex 43.5 -28.5 55
  endloop
endfacet
facet normal 0 1 0
  outer loop
    vertex 43.5 28.5 0
    vertex 15.5 28.5 55
    vertex 43.5 28.5 55
  endloop
endfacet
facet normal 0 1 0
  outer loop
    vertex 43.5 28.5 0
    vertex 15.5 28.5 0
    vertex 15.5 28.5 55
  endloop
endfacet
facet normal 0 0 -1
  outer loop
    vertex 43.5 -28.5 0
    vertex 15.5 28.5 0
    vertex 43.5 28.5 0
  endloop
endfacet
facet normal 0 0 -1
  outer loop
    vertex 43.5 -28.5 0
    vertex 15.5 -28.5 0
    vertex 15.5 28.5 0
  endloop
endfacet
facet normal 0 0 1
  outer loop
    vertex 43.5 -28.5 55
    vertex 43.5 28.5 55
    vertex 15.5 28.5 55
  endloop
endfacet
facet normal 0 0 1
  outer loop
    vertex 43.5 -28.5 55
    vertex 15.5 28.5 55
    vertex 15.5 -28.5 55
  endloop
endfacet
facet normal -1 0 0
  outer loop
    vertex -43.5 28.5 0
    vertex -43.5 -28.5 55
    vertex -43.5 28.5 55
  endloop
endfacet
facet normal -1 0 0
  outer loop
    vertex -43.5 28.5 0
    vertex -43.5 -28.5 0
    vertex -43.5 -28.5 55
  endloop
endfacet
facet normal 1 0 0
  outer loop
    vertex -15.5 -28.5 0
    vertex -15.5 28.5 55
    vertex -15.5 -28.5 55
  endloop
endfacet
facet normal 1 0 0
  outer loop
    vertex -15.5 -28.5 0
    vertex -15.5 28.5 0
    vertex -15.5 28.5 55
  endloop
endfacet
facet normal 0 1 0
  outer loop
    vertex -15.5 28.5 0
    vertex -43.5 28.5 55
    vertex -15.5 28.5 55
  endloop
endfacet
facet normal 0 1 0
  outer loop
    vertex -15.5 28.5 0
    vertex -43.5 28.5 0
    vertex -43.5 28.5 55
  endloop
endfacet
facet normal 0 -1 0
  outer loop
    vertex -43.5 -28.5 0
    vertex -15.5 -28.5 55
    vertex -43.5 -28.5 55
  endloop
endfacet
facet normal 0 -1 0
  outer loop
    vertex -43.5 -28.5 0
    vertex -15.5 -28.5 0
    vertex -15.5 -28.5 55
  endloop
endfacet
facet normal 0 0 -1
  outer loop
    vertex -43.5 28.5 0
    vertex -15.5 -28.5 0
    vertex -43.5 -28.5 0
  endloop
endfacet
facet normal 0 0 -1
  outer loop
    vertex -43.5 28.5 0
    vertex -15.5 28.5 0
    vertex -15.5 -28.5 0
  endloop
endfacet
facet normal 0 0 1
  outer loop
    vertex -43.5 28.5 55
    vertex -43.5 -28.5 55
    vertex -15.5 -28.5 55
  endloop
endfacet
facet normal 0 0 1
  outer loop
    vertex -43.5 28.5 55
    vertex -15.5 -28.5 55
    vertex -15.5 28.5 55
  endloop
endfacet
endsolid C0805C-M
