M48
;GenerationSoftware,Autodesk,EAGLE,9.2.1*%
;CreationDate,2018-10-30T19:08:58Z*%
FMAT,2
ICI,OFF
INCH,TZ,000.000
T5C0.047
T4C0.051
T3C0.063
T2C0.196
T1C0.256
%
G90
M72
T1
X7926Y591
X984Y3937
X984Y7382
X984Y10925
X984Y14370
X984Y591
X7926Y3937
X7926Y7382
X7926Y10925
X7926Y14370
T2
X1181Y1969
X7874Y1969
X7874Y12992
X1181Y12992
T3
X295Y7087
X295Y7677
X8661Y7087
X8661Y7677
T4
X348Y7333
X8714Y7333
T5
X295Y7185
X295Y7283
X295Y7382
X295Y7480
X295Y7579
X8661Y7185
X8661Y7283
X8661Y7382
X8661Y7480
X8661Y7579
M30